<svg width="16" height="16" viewBox="0 0 16 16" fill="none" xmlns="http://www.w3.org/2000/svg">
<g id="Frame 587">
<g id="SS">
<path d="M4.47904 12.823C3.68171 12.823 2.99704 12.6887 2.42504 12.42C1.85304 12.1513 1.40671 11.7743 1.08604 11.289C0.765372 10.8037 0.583372 10.2317 0.540039 9.573L2.52904 9.482C2.58104 9.846 2.68504 10.158 2.84104 10.418C3.00571 10.6693 3.22237 10.86 3.49104 10.99C3.76837 11.12 4.10637 11.185 4.50504 11.185C4.83437 11.185 5.11171 11.146 5.33704 11.068C5.57104 10.99 5.74871 10.873 5.87004 10.717C5.99137 10.5523 6.05204 10.353 6.05204 10.119C6.05204 9.90234 6.00004 9.716 5.89604 9.56C5.79204 9.39534 5.59271 9.248 5.29804 9.118C5.00337 8.97934 4.57004 8.845 3.99804 8.715C3.20937 8.533 2.57237 8.32934 2.08704 8.104C1.61037 7.87867 1.26371 7.597 1.04704 7.259C0.830372 6.91234 0.722039 6.479 0.722039 5.959C0.722039 5.40434 0.856372 4.919 1.12504 4.503C1.40237 4.087 1.80104 3.762 2.32104 3.528C2.84104 3.294 3.46071 3.177 4.18004 3.177C4.94271 3.177 5.58837 3.31134 6.11704 3.58C6.64571 3.84867 7.05737 4.217 7.35204 4.685C7.65537 5.153 7.83737 5.69033 7.89804 6.297L5.92204 6.401C5.89604 6.08033 5.80937 5.803 5.66204 5.569C5.51471 5.32633 5.31537 5.14 5.06404 5.01C4.81271 4.88 4.50937 4.815 4.15404 4.815C3.70337 4.815 3.34804 4.91467 3.08804 5.114C2.83671 5.31334 2.71104 5.57334 2.71104 5.894C2.71104 6.11934 2.76737 6.31 2.88004 6.466C3.00137 6.61333 3.19637 6.74334 3.46504 6.856C3.74237 6.96867 4.13237 7.077 4.63504 7.181C5.49304 7.35434 6.16904 7.57533 6.66304 7.844C7.16571 8.104 7.52104 8.416 7.72904 8.78C7.93704 9.144 8.04104 9.56 8.04104 10.028C8.04104 10.6 7.89371 11.0983 7.59904 11.523C7.31304 11.939 6.90137 12.2597 6.36404 12.485C5.83537 12.7103 5.20704 12.823 4.47904 12.823Z" fill="#CD163D"/>
<path d="M11.8977 12.823C11.1003 12.823 10.4157 12.6887 9.84367 12.42C9.27167 12.1513 8.82534 11.7743 8.50467 11.289C8.18401 10.8037 8.00201 10.2317 7.95867 9.573L9.94767 9.482C9.99967 9.846 10.1037 10.158 10.2597 10.418C10.4243 10.6693 10.641 10.86 10.9097 10.99C11.187 11.12 11.525 11.185 11.9237 11.185C12.253 11.185 12.5303 11.146 12.7557 11.068C12.9897 10.99 13.1673 10.873 13.2887 10.717C13.41 10.5523 13.4707 10.353 13.4707 10.119C13.4707 9.90234 13.4187 9.716 13.3147 9.56C13.2107 9.39534 13.0113 9.248 12.7167 9.118C12.422 8.97934 11.9887 8.845 11.4167 8.715C10.628 8.533 9.99101 8.32934 9.50567 8.104C9.02901 7.87867 8.68234 7.597 8.46567 7.259C8.24901 6.91234 8.14067 6.479 8.14067 5.959C8.14067 5.40434 8.275 4.919 8.54367 4.503C8.821 4.087 9.21967 3.762 9.73967 3.528C10.2597 3.294 10.8793 3.177 11.5987 3.177C12.3613 3.177 13.007 3.31134 13.5357 3.58C14.0643 3.84867 14.476 4.217 14.7707 4.685C15.074 5.153 15.256 5.69033 15.3167 6.297L13.3407 6.401C13.3147 6.08033 13.228 5.803 13.0807 5.569C12.9333 5.32633 12.734 5.14 12.4827 5.01C12.2313 4.88 11.928 4.815 11.5727 4.815C11.122 4.815 10.7667 4.91467 10.5067 5.114C10.2553 5.31334 10.1297 5.57334 10.1297 5.894C10.1297 6.11934 10.186 6.31 10.2987 6.466C10.42 6.61333 10.615 6.74334 10.8837 6.856C11.161 6.96867 11.551 7.077 12.0537 7.181C12.9117 7.35434 13.5877 7.57533 14.0817 7.844C14.5843 8.104 14.9397 8.416 15.1477 8.78C15.3557 9.144 15.4597 9.56 15.4597 10.028C15.4597 10.6 15.3123 11.0983 15.0177 11.523C14.7317 11.939 14.32 12.2597 13.7827 12.485C13.254 12.7103 12.6257 12.823 11.8977 12.823Z" fill="#CD163D"/>
</g>
</g>
</svg>
